<?xml version="1.0" standalone="no"?>
<!DOCTYPE svg PUBLIC "-//W3C//DTD SVG 20010904//EN"
 "http://www.w3.org/TR/2001/REC-SVG-20010904/DTD/svg10.dtd">
<svg version="1.0" xmlns="http://www.w3.org/2000/svg"
 width="500.000000pt" height="500.000000pt" viewBox="0 0 500.000000 500.000000"
 preserveAspectRatio="xMidYMid meet">

<g transform="translate(0.000000,500.000000) scale(0.100000,-0.100000)"
fill="#000000" stroke="none">
<path d="M1628 4984 c-33 -17 -98 -125 -129 -214 -19 -53 -23 -86 -23 -175 -1
-136 11 -176 112 -395 l77 -165 0 -97 c0 -94 -1 -98 -42 -178 -48 -91 -54
-141 -24 -177 25 -29 68 -45 101 -38 77 17 165 193 176 353 9 118 -16 211
-105 406 -39 83 -75 176 -82 206 -19 91 -6 171 46 273 55 108 57 137 11 183
-38 38 -73 43 -118 18z"/>
<path d="M2458 4984 c-33 -18 -99 -127 -128 -214 -13 -37 -25 -102 -27 -150
-7 -115 16 -205 105 -401 91 -199 95 -216 90 -306 -4 -63 -12 -88 -47 -155
-47 -92 -53 -141 -20 -177 27 -29 66 -43 99 -36 77 17 165 193 176 353 9 117
-14 206 -105 403 -84 186 -96 228 -88 321 5 58 15 88 52 160 55 109 57 138 11
184 -38 38 -73 43 -118 18z"/>
<path d="M3288 4984 c-34 -18 -99 -127 -129 -214 -12 -37 -24 -102 -26 -150
-7 -116 16 -206 105 -401 83 -181 96 -228 89 -314 -3 -50 -15 -84 -47 -147
-52 -102 -54 -139 -11 -182 42 -42 97 -43 140 -2 41 39 99 159 116 242 32 152
13 253 -91 479 -86 188 -98 232 -92 325 4 58 13 86 52 161 56 110 58 139 12
185 -38 38 -73 43 -118 18z"/>
<path d="M591 3314 c-84 -22 -149 -63 -227 -139 -77 -76 -123 -157 -143 -253
-15 -74 -15 -2020 0 -2094 38 -182 195 -344 380 -393 38 -10 112 -15 247 -15
l192 0 0 -165 c0 -188 8 -217 65 -241 43 -17 87 -9 117 23 22 24 23 32 26 204
l3 179 1249 0 1249 0 3 -179 c3 -174 4 -180 27 -205 50 -53 131 -41 163 24 15
29 18 63 18 198 l0 162 193 0 c277 0 349 23 483 155 77 76 123 157 143 253 15
74 15 2020 0 2094 -28 133 -143 285 -265 350 -114 62 7 58 -2019 57 -1584 0
-1858 -2 -1904 -15z m3811 -222 c79 -39 129 -93 158 -169 20 -52 20 -77 20
-1048 0 -971 0 -996 -20 -1048 -29 -76 -79 -130 -158 -169 l-67 -33 -1835 0
-1835 0 -67 33 c-79 39 -129 93 -158 169 -20 52 -20 77 -20 1048 0 971 0 996
20 1048 38 101 132 179 238 197 26 4 859 7 1852 6 l1805 -1 67 -33z"/>
<path d="M868 2885 c-14 -14 -28 -39 -32 -56 -8 -41 -8 -1867 0 -1908 8 -36
45 -77 77 -83 41 -8 87 11 107 45 20 31 20 53 18 1005 l-3 974 -28 24 c-40 34
-105 33 -139 -1z"/>
<path d="M1489 2881 l-29 -30 2 -981 3 -982 28 -24 c60 -52 155 -20 171 57 8
41 8 1867 0 1908 -16 81 -116 110 -175 52z"/>
<path d="M2118 2885 c-14 -14 -28 -39 -32 -56 -8 -41 -8 -1867 0 -1908 16 -77
111 -109 171 -57 l28 24 0 987 0 987 -28 24 c-40 34 -105 33 -139 -1z"/>
<path d="M2743 2886 l-28 -24 0 -987 0 -987 28 -24 c60 -52 155 -20 171 57 8
41 8 1867 0 1908 -16 77 -111 109 -171 57z"/>
<path d="M3368 2885 c-14 -14 -28 -39 -32 -56 -8 -41 -8 -1867 0 -1908 16 -81
116 -110 175 -52 l29 29 0 977 0 977 -29 29 c-40 39 -106 41 -143 4z"/>
<path d="M3993 2886 l-28 -24 0 -987 0 -987 28 -24 c60 -52 155 -20 171 57 8
41 8 1867 0 1908 -16 77 -111 109 -171 57z"/>
</g>
</svg>
